<svg width="56" height="56" viewBox="0 0 56 56" fill="none" xmlns="http://www.w3.org/2000/svg">
<path d="M35 40.2515C35 39.1685 35.4302 38.1299 36.196 37.3641C36.9618 36.5984 38.0004 36.1682 39.0833 36.1682H47.8333V40.1348C47.8333 41.2487 47.3908 42.317 46.6032 43.1047C45.8155 43.8923 44.7472 44.3348 43.6333 44.3348H39.0833C38.0004 44.3348 36.9618 43.9046 36.196 43.1388C35.4302 42.3731 35 41.3345 35 40.2515ZM7 44.9182C7 43.8352 7.43021 42.7966 8.19598 42.0308C8.96175 41.265 10.0004 40.8348 11.0833 40.8348H18.6667V44.8015C18.6667 45.353 18.558 45.8992 18.347 46.4088C18.1359 46.9183 17.8265 47.3813 17.4365 47.7713C17.0465 48.1613 16.5835 48.4707 16.0739 48.6818C15.5644 48.8928 15.0182 49.0015 14.4667 49.0015H11.0833C10.0004 49.0015 8.96175 48.5713 8.19598 47.8055C7.43021 47.0397 7 46.0011 7 44.9182Z" stroke="#A6A6A6" stroke-width="3" stroke-linejoin="round"/>
<path d="M18.6665 21.0528L47.8332 14.1473M18.6665 44.3348V11.6682L47.8332 4.66815V39.3088" stroke="#A6A6A6" stroke-width="3" stroke-linecap="round" stroke-linejoin="round"/>
</svg>
