<svg width="56" height="56" viewBox="0 0 56 56" fill="none" xmlns="http://www.w3.org/2000/svg">
<path fill-rule="evenodd" clip-rule="evenodd" d="M36.6514 36.4795C35.8598 36.6027 35.0485 36.6666 34.2224 36.6666C25.5699 36.6666 18.5557 29.6524 18.5557 21C18.5557 20.7648 18.5609 20.5309 18.5712 20.2983C19.3628 20.175 20.174 20.1111 21.0002 20.1111C29.6526 20.1111 36.6668 27.1253 36.6668 35.7778C36.6668 36.0129 36.6616 36.2469 36.6514 36.4795ZM39.6666 35.6948C39.622 25.4236 31.2818 17.1111 21.0002 17.1111C20.3299 17.1111 19.6679 17.1464 19.0159 17.2153C20.7088 10.3913 26.8749 5.33331 34.2224 5.33331C42.8748 5.33331 49.889 12.3475 49.889 21C49.889 27.7381 45.6353 33.4827 39.6666 35.6948ZM39.4002 38.9392C47.1906 36.6946 52.889 29.5128 52.889 21C52.889 10.6907 44.5317 2.33331 34.2224 2.33331C24.9906 2.33331 17.3241 9.03489 15.8223 17.8386C8.0319 20.0831 2.3335 27.265 2.3335 35.7778C2.3335 46.0871 10.6908 54.4444 21.0002 54.4444C30.2319 54.4444 37.8984 47.7429 39.4002 38.9392ZM36.2066 39.5624C35.5546 39.6313 34.8926 39.6666 34.2224 39.6666C23.9407 39.6666 15.6006 31.3541 15.5559 21.0829C9.58727 23.2951 5.3335 29.0397 5.3335 35.7778C5.3335 44.4302 12.3477 51.4444 21.0002 51.4444C28.3477 51.4444 34.5138 46.3864 36.2066 39.5624Z" fill="#A6A6A6"/>
</svg>
