<svg width="42" height="42" viewBox="0 0 42 42" fill="none" xmlns="http://www.w3.org/2000/svg">
<circle cx="21" cy="21" r="20" stroke="#BABABA" stroke-width="2"/>
<path fill-rule="evenodd" clip-rule="evenodd" d="M28.1389 14.8053C28.2008 14.7433 28.25 14.6697 28.2836 14.5887C28.3171 14.5077 28.3344 14.4209 28.3344 14.3333C28.3344 14.2456 28.3171 14.1588 28.2836 14.0778C28.25 13.9968 28.2008 13.9233 28.1389 13.8613C28.0769 13.7993 28.0033 13.7501 27.9223 13.7166C27.8413 13.683 27.7545 13.6658 27.6669 13.6658C27.5792 13.6658 27.4924 13.683 27.4114 13.7166C27.3304 13.7501 27.2568 13.7993 27.1949 13.8613L21.0002 20.0573L14.8055 13.8613C14.7435 13.7993 14.67 13.7501 14.589 13.7166C14.508 13.683 14.4212 13.6658 14.3335 13.6658C14.2459 13.6658 14.1591 13.683 14.0781 13.7166C13.9971 13.7501 13.9235 13.7993 13.8615 13.8613C13.7995 13.9233 13.7504 13.9968 13.7168 14.0778C13.6833 14.1588 13.666 14.2456 13.666 14.3333C13.666 14.4209 13.6833 14.5077 13.7168 14.5887C13.7504 14.6697 13.7995 14.7433 13.8615 14.8053L20.0575 20.9999L13.8615 27.1946C13.7363 27.3198 13.666 27.4896 13.666 27.6666C13.666 27.8436 13.7363 28.0134 13.8615 28.1386C13.9867 28.2638 14.1565 28.3341 14.3335 28.3341C14.5106 28.3341 14.6803 28.2638 14.8055 28.1386L21.0002 21.9426L27.1949 28.1386C27.32 28.2638 27.4898 28.3341 27.6669 28.3341C27.8439 28.3341 28.0137 28.2638 28.1389 28.1386C28.264 28.0134 28.3344 27.8436 28.3344 27.6666C28.3344 27.4896 28.264 27.3198 28.1389 27.1946L21.9429 20.9999L28.1389 14.8053Z" fill="#BABABA"/>
</svg>
